<?xml version="1.0" encoding="UTF-8"?>
<svg xmlns="http://www.w3.org/2000/svg" xmlns:xlink="http://www.w3.org/1999/xlink" width="305px" height="343px" viewBox="0 0 305 343" version="1.1">
<defs>
<clipPath id="clip1">
  <path d="M 90.027344 85.75 L 214.972656 85.75 L 214.972656 257.25 L 90.027344 257.25 Z M 90.027344 85.75 "/>
</clipPath>
</defs>
<g id="surface1">
<path style=" stroke:none;fill-rule:nonzero;fill:rgb(93.333333%,24.313725%,21.960784%);fill-opacity:1;" d="M 209.289062 39.070312 C 209.960938 39.070312 215.355469 41.765625 218.386719 42.777344 C 217.375 43.113281 215.015625 42.105469 212.320312 41.09375 C 212.992188 41.09375 214.34375 41.429688 215.691406 42.101562 C 215.015625 41.429688 209.960938 39.746094 209.289062 39.070312 M 159.070312 28.628906 C 160.082031 28.289062 171.878906 29.976562 177.269531 30.3125 C 177.609375 29.976562 176.597656 29.976562 175.25 29.640625 C 176.933594 29.300781 180.304688 30.3125 182.664062 30.648438 C 175.585938 30.984375 167.832031 28.964844 161.09375 29.640625 C 158.734375 29.640625 160.421875 28.964844 159.070312 28.628906 M 149.296875 28.628906 C 155.363281 28.628906 160.082031 28.628906 151.320312 29.300781 C 150.308594 28.964844 148.960938 28.964844 149.296875 28.628906 M 244.675781 56.589844 C 245.347656 56.589844 248.042969 59.621094 249.390625 60.632812 C 249.054688 60.96875 246.359375 58.273438 245.011719 57.265625 C 245.347656 57.601562 245.011719 57.265625 244.675781 56.589844 M 237.933594 52.210938 C 235.238281 49.851562 234.226562 49.851562 233.890625 48.503906 C 236.25 49.851562 237.933594 51.199219 237.933594 52.210938 M 194.457031 30.984375 C 194.796875 30.648438 195.46875 31.324219 197.15625 31.660156 C 195.132812 31.324219 195.46875 31.660156 196.144531 32.332031 C 193.785156 31.996094 193.109375 31.660156 193.785156 30.984375 C 195.132812 31.660156 195.46875 31.324219 194.457031 30.984375 M 98.746094 35.027344 C 98.746094 34.691406 100.09375 34.019531 101.105469 33.683594 C 100.09375 34.355469 100.429688 34.691406 102.117188 34.019531 C 102.117188 34.355469 100.09375 35.027344 98.746094 35.703125 C 99.417969 35.363281 100.09375 34.355469 98.746094 35.027344 M 201.199219 27.617188 C 200.1875 27.953125 196.480469 25.933594 192.773438 25.257812 C 190.75 24.585938 200.863281 26.945312 201.199219 27.617188 M 2.359375 194.042969 C 4.382812 202.464844 3.03125 202.128906 2.359375 194.042969 M 2.695312 143.507812 C 3.035156 142.160156 3.371094 138.453125 3.707031 138.792969 C 2.695312 146.878906 1.011719 150.582031 0.675781 156.648438 C 1.683594 151.257812 0.335938 159.679688 0 161.699219 C 0.335938 164.394531 0.335938 160.015625 1.011719 160.691406 C 1.683594 161.703125 -0.335938 175.851562 0.335938 168.101562 C -0.335938 175.175781 0.335938 182.925781 1.683594 184.945312 C 0 195.726562 8.425781 219.984375 10.109375 225.035156 C 10.449219 225.375 10.109375 223.351562 10.785156 224.699219 C 11.457031 229.082031 14.492188 232.113281 15.503906 236.828125 C 16.515625 238.175781 20.558594 245.585938 21.230469 247.273438 C 22.578125 249.96875 23.253906 249.628906 24.601562 252.324219 C 28.644531 260.074219 35.050781 267.484375 41.117188 274.558594 C 60.664062 297.46875 90.65625 316.335938 124.023438 323.074219 C 157.386719 330.148438 192.4375 325.09375 219.734375 311.957031 C 221.417969 310.945312 221.082031 310.609375 223.105469 309.933594 C 232.542969 306.902344 244 297.132812 250.402344 293.425781 C 253.4375 290.058594 261.523438 284.328125 262.535156 280.960938 C 268.265625 276.246094 273.996094 268.496094 277.027344 263.441406 C 278.710938 260.746094 280.058594 260.746094 280.734375 259.0625 C 280.398438 259.0625 286.125 251.988281 287.8125 247.945312 C 287.136719 247.945312 286.128906 249.96875 286.128906 247.945312 C 298.257812 224.699219 305 193.367188 301.292969 171.808594 C 301.964844 198.421875 295.226562 228.070312 282.417969 246.933594 C 276.691406 259.0625 264.894531 272.203125 254.109375 281.636719 C 252.425781 283.320312 250.742188 285.339844 248.71875 286.6875 C 242.316406 292.078125 235.238281 296.457031 227.824219 300.5 C 210.296875 310.269531 190.75 318.695312 167.832031 319.03125 C 207.265625 315.660156 242.652344 295.785156 262.199219 271.527344 C 247.371094 286.015625 240.96875 291.742188 224.453125 300.164062 C 223.105469 302.523438 211.984375 307.238281 204.570312 309.261719 C 208.949219 307.238281 218.050781 303.871094 221.082031 301.175781 C 196.480469 312.964844 169.183594 319.703125 143.570312 316 C 153.34375 316 167.160156 316.335938 180.304688 313.976562 C 182.324219 313.304688 183.335938 312.628906 185.695312 312.292969 C 211.308594 306.566406 235.910156 294.101562 253.4375 276.582031 C 243.324219 285.679688 228.160156 296.457031 218.386719 299.828125 C 227.484375 294.773438 244 285.003906 249.390625 277.59375 C 238.605469 288.375 218.386719 299.152344 205.582031 303.871094 C 203.558594 304.207031 206.929688 302.523438 203.558594 303.871094 C 199.515625 304.882812 201.199219 304.882812 200.1875 305.554688 C 184.683594 309.933594 166.824219 313.640625 151.996094 312.292969 C 149.296875 311.957031 148.289062 311.28125 145.929688 311.28125 C 143.230469 310.945312 140.871094 310.945312 137.839844 310.945312 C 126.042969 309.597656 113.238281 304.878906 103.800781 300.839844 C 98.746094 298.480469 93.691406 296.796875 88.636719 293.761719 C 84.589844 291.40625 81.21875 288.710938 77.851562 286.015625 C 65.046875 276.582031 54.261719 267.148438 44.148438 253.671875 C 25.949219 228.40625 16.515625 196.738281 17.863281 165.40625 C 19.210938 134.074219 31.679688 103.417969 51.5625 80.847656 C 50.550781 81.855469 52.910156 78.488281 54.933594 76.46875 C 54.933594 77.140625 54.597656 78.152344 56.957031 75.792969 C 58.976562 73.433594 56.28125 75.121094 57.292969 73.773438 C 78.1875 50.863281 114.585938 32.332031 151.996094 31.660156 C 153.34375 30.648438 155.703125 29.300781 158.398438 29.976562 C 158.398438 30.3125 156.710938 30.3125 156.710938 30.3125 C 160.417969 29.976562 163.789062 29.976562 165.476562 30.648438 C 165.8125 30.3125 164.128906 29.976562 165.476562 29.976562 C 167.832031 30.648438 168.507812 29.976562 169.855469 30.648438 C 168.84375 30.648438 167.832031 30.648438 167.160156 30.984375 C 175.585938 30.984375 180.976562 33.007812 189.402344 33.683594 C 185.023438 32.671875 184.011719 32.671875 180.640625 31.660156 C 184.347656 32.332031 186.03125 33.007812 187.71875 32.671875 C 187.042969 32.671875 187.378906 31.660156 188.054688 31.996094 C 194.796875 33.683594 195.46875 34.355469 202.546875 36.714844 C 203.21875 36.039062 199.515625 35.703125 198.503906 34.691406 C 205.242188 37.050781 211.308594 38.734375 215.355469 41.429688 C 214.007812 40.417969 209.960938 39.070312 206.929688 37.722656 C 206.589844 38.0625 207.941406 38.398438 208.277344 39.070312 C 204.90625 37.386719 200.1875 35.703125 195.46875 35.027344 C 199.515625 36.039062 202.210938 37.386719 203.894531 38.0625 C 200.1875 37.386719 195.46875 35.027344 190.078125 34.019531 C 198.839844 36.714844 215.351562 42.777344 225.464844 48.167969 C 221.757812 45.808594 217.375 44.125 215.015625 42.777344 C 217.039062 43.113281 219.398438 44.460938 219.398438 43.789062 C 221.757812 44.796875 224.789062 47.15625 226.476562 47.492188 C 223.441406 45.472656 217.375 42.441406 215.355469 41.429688 C 240.628906 52.882812 263.210938 72.085938 277.703125 96.679688 C 279.050781 99.039062 281.070312 104.429688 282.757812 105.101562 C 282.417969 103.417969 281.070312 102.40625 279.722656 99.714844 C 280.398438 99.714844 280.398438 98.703125 279.722656 97.691406 C 278.375 96.007812 279.722656 99.039062 278.375 97.355469 C 272.308594 86.234375 264.894531 76.464844 253.4375 65.6875 C 259.839844 71.75 255.121094 67.371094 253.773438 65.347656 C 262.535156 73.097656 272.644531 86.238281 277.027344 92.976562 C 276.355469 91.964844 276.015625 91.289062 276.355469 91.289062 C 284.441406 105.101562 289.496094 117.566406 294.554688 135.421875 C 294.890625 135.761719 294.554688 134.074219 295.226562 135.085938 C 298.597656 149.238281 299.609375 161.027344 299.269531 171.808594 C 301.96875 153.617188 295.902344 125.316406 285.117188 103.082031 C 283.769531 100.386719 283.769531 102.40625 282.417969 99.375 C 282.417969 98.363281 281.410156 96.34375 280.734375 94.996094 C 267.253906 72.761719 250.738281 56.925781 231.191406 44.460938 C 232.539062 45.136719 235.238281 47.15625 235.238281 46.820312 C 198.839844 22.902344 156.710938 19.53125 122 26.945312 C 119.640625 27.953125 118.628906 28.964844 115.933594 30.3125 C 120.988281 28.628906 124.023438 28.289062 128.742188 27.28125 C 129.75 26.269531 124.359375 27.617188 126.71875 26.605469 C 127.054688 26.945312 131.4375 25.933594 132.445312 26.269531 C 132.445312 26.605469 131.097656 26.945312 130.761719 27.28125 C 141.882812 24.921875 153.34375 24.585938 163.117188 25.257812 C 157.386719 25.597656 146.941406 24.585938 143.570312 26.269531 C 146.941406 25.933594 151.65625 25.597656 154.691406 25.933594 C 150.644531 25.933594 143.230469 26.269531 139.863281 26.605469 C 139.523438 26.269531 145.253906 25.59375 141.546875 25.597656 C 139.863281 25.933594 137.164062 25.933594 136.15625 26.945312 C 107.171875 29.640625 78.863281 44.796875 58.976562 62.65625 C 54.933594 66.023438 50.214844 69.730469 47.183594 73.433594 C 39.769531 81.855469 35.050781 90.28125 29.65625 97.691406 C 33.027344 90.617188 40.441406 79.835938 49.203125 70.738281 C 57.964844 61.644531 67.402344 53.894531 72.457031 49.851562 C 72.457031 51.199219 80.546875 44.796875 83.582031 42.777344 C 81.558594 44.460938 84.929688 42.105469 85.601562 42.441406 C 96.386719 36.039062 105.148438 33.683594 114.921875 29.976562 C 112.5625 30.648438 110.542969 31.324219 110.203125 30.984375 C 112.5625 30.3125 113.910156 29.640625 113.574219 29.300781 C 104.136719 31.996094 89.308594 38.398438 77.515625 45.472656 C 98.746094 30.984375 125.707031 22.226562 152.332031 21.890625 C 178.957031 21.214844 204.90625 27.953125 225.464844 38.734375 C 239.28125 44.800781 252.425781 55.917969 262.871094 66.699219 C 265.90625 69.394531 263.546875 66.023438 267.929688 70.738281 C 266.582031 70.066406 265.570312 69.394531 267.253906 71.414062 C 269.949219 74.445312 266.582031 69.054688 270.960938 74.445312 C 270.625 74.445312 269.277344 72.761719 269.277344 73.433594 C 281.070312 83.878906 290.171875 102.742188 295.5625 115.210938 C 294.214844 110.15625 290.84375 103.082031 288.148438 98.027344 C 296.238281 112.851562 298.933594 121.609375 302.304688 134.75 C 303.652344 135.761719 301.628906 130.035156 302.976562 132.730469 C 303.316406 134.75 303.652344 141.152344 305 142.160156 C 303.988281 135.761719 302.304688 128.011719 300.957031 126.664062 C 301.96875 127.335938 299.269531 118.914062 297.585938 116.894531 C 296.910156 111.503906 292.195312 102.070312 288.148438 94.996094 C 273.65625 66.695312 247.707031 43.453125 218.722656 30.648438 C 218.722656 29.976562 217.039062 29.300781 216.363281 28.628906 C 187.71875 16.5 153.339844 13.132812 120.316406 20.878906 C 86.949219 28.964844 55.609375 48.167969 33.363281 75.792969 C 34.375 72.425781 42.800781 66.023438 43.136719 63.328125 C 33.363281 73.773438 22.917969 87.585938 15.839844 102.40625 C 8.425781 117.230469 4.382812 132.390625 2.695312 143.507812 "/>
<g clip-path="url(#clip1)" clip-rule="nonzero">
<path style=" stroke:none;fill-rule:nonzero;fill:rgb(93.333333%,24.313725%,21.960784%);fill-opacity:1;" d="M 116.058594 257.25 L 90.027344 257.25 L 90.027344 85.75 L 136.882812 85.75 C 145.875 85.75 154.125 86.933594 161.632812 89.296875 C 169.113281 91.664062 175.582031 95.179688 181.039062 99.847656 C 186.464844 104.484375 190.675781 110.144531 193.675781 116.832031 C 196.671875 123.550781 198.171875 131.246094 198.171875 139.921875 C 198.171875 144.652344 197.699219 149.335938 196.75 153.972656 C 195.804688 158.640625 194.273438 163.132812 192.160156 167.453125 C 190.015625 171.808594 187.285156 175.828125 183.972656 179.519531 C 180.660156 183.242188 176.636719 186.363281 171.90625 188.886719 C 178.214844 198.820312 185.078125 209.8125 192.492188 221.863281 C 199.90625 233.941406 207.398438 245.738281 214.972656 257.25 L 183.972656 257.25 C 180.816406 252.359375 177.550781 247.234375 174.175781 241.875 C 170.769531 236.511719 167.375 231.183594 164 225.882812 C 160.59375 220.617188 157.28125 215.410156 154.0625 210.269531 C 150.8125 205.160156 147.765625 200.398438 144.925781 195.984375 L 116.058594 195.984375 Z M 116.058594 109.878906 L 116.058594 171.617188 L 139.484375 171.617188 C 145.796875 171.617188 151.082031 170.546875 155.339844 168.402344 C 159.597656 166.289062 162.960938 163.65625 165.421875 160.5 C 167.851562 157.347656 169.585938 153.957031 170.625 150.328125 C 171.636719 146.703125 172.140625 143.390625 172.140625 140.394531 C 172.140625 137.398438 171.636719 134.117188 170.625 130.554688 C 169.585938 127.019531 167.800781 123.707031 165.277344 120.617188 C 162.753906 117.558594 159.410156 115.003906 155.246094 112.953125 C 151.046875 110.902344 145.875 109.878906 139.722656 109.878906 Z M 116.058594 109.878906 "/>
</g>
</g>
</svg>
